<?xml version="1.0" standalone="no"?>
<!DOCTYPE svg PUBLIC "-//W3C//DTD SVG 20010904//EN"
 "http://www.w3.org/TR/2001/REC-SVG-20010904/DTD/svg10.dtd">
<svg version="1.0" xmlns="http://www.w3.org/2000/svg"
 width="772.000000pt" height="516.000000pt" viewBox="0 0 772.000000 516.000000"
 preserveAspectRatio="xMidYMid meet">

<g transform="translate(0.000000,516.000000) scale(0.100000,-0.100000)"
fill="#000000" stroke="none">
<path d="M0 2580 l0 -2580 3860 0 3860 0 0 2580 0 2580 -3860 0 -3860 0 0
-2580z m2735 1329 c317 -39 600 -179 816 -405 66 -70 149 -174 149 -189 0 -4
-24 16 -52 44 -70 69 -211 162 -306 201 -150 63 -250 83 -417 83 -168 1 -240
-12 -385 -67 -144 -53 -241 -117 -361 -236 -223 -221 -321 -454 -320 -760 1
-149 23 -269 74 -395 131 -319 394 -547 735 -636 100 -27 292 -36 403 -20 211
31 420 133 587 284 l46 42 -31 -45 c-111 -162 -298 -322 -488 -417 -180 -91
-340 -131 -550 -139 -236 -10 -429 31 -640 136 -323 160 -572 449 -679 787
-45 145 -60 246 -59 413 0 170 20 295 69 432 65 181 203 397 330 519 293 278
695 415 1079 368z m1495 -881 c73 -101 136 -187 140 -192 5 -4 108 24 230 64
122 39 224 70 226 67 2 -2 -57 -87 -131 -189 -74 -102 -135 -190 -135 -194 0
-5 61 -92 135 -194 74 -102 135 -188 135 -191 0 -4 -102 27 -227 67 -125 41
-229 70 -232 65 -4 -4 -67 -92 -141 -194 l-135 -185 -5 241 -5 241 -217 71
c-119 38 -219 73 -223 76 -3 4 96 39 220 80 l225 73 0 238 c0 131 2 238 4 238
2 0 64 -82 136 -182z"/>
</g>
</svg>
